Coordinates
version=1
nRows=21
nColumns=22
inDegrees=yes

Units are S.I. units (second, meters, Newtons, ...)
If the header above contains a line with 'inDegrees', this indicates whether rotational values are in degrees (yes) or radians (no).

endheader
time	pelvis_tilt	pelvis_list	pelvis_rotation	pelvis_tx	pelvis_ty	pelvis_tz	hip_flexion_r	hip_adduction_r	hip_rotation_r	knee_angle_r	ankle_angle_r	subtalar_angle_r	hip_flexion_l	hip_adduction_l	hip_rotation_l	knee_angle_l	ankle_angle_l	subtalar_angle_l	lumbar_extension	lumbar_bending	lumbar_rotation
      1.35000000	      6.94075607	     -3.29038693	      4.67144332	      1.15454009	      0.94499650	     -0.08162897	     -7.44568046	      6.24146925	    -11.58023351	     -9.72177040	     10.29061018	     -2.40029730	     -4.55437429	     -5.03680539	    -10.53457891	    -17.79627423	     21.88179371	     -7.79471902	    -12.99989185	      3.57852196	     -8.95206842
      1.36000000	      6.96340952	     -3.28453227	      4.65273618	      1.15423710	      0.94505338	     -0.08138551	     -7.44178272	      6.24719064	    -11.55918968	     -9.73505052	     10.26574098	     -2.39418154	     -4.54077343	     -5.04351623	    -10.52997678	    -17.83314657	     21.85332233	     -7.80705962	    -13.01705916	      3.58245054	     -8.95283481
      1.37000000	      6.99127600	     -3.27577430	      4.63428660	      1.15393799	      0.94511625	     -0.08115078	     -7.44766213	      6.25005838	    -11.52513103	     -9.74262723	     10.24830514	     -2.38721550	     -4.53585602	     -5.04590498	    -10.52345471	    -17.86591488	     21.82277837	     -7.82508759	    -13.03694233	      3.58770797	     -8.95994487
      1.38000000	      7.03594819	     -3.26731621	      4.61017620	      1.15366283	      0.94520959	     -0.08091004	     -7.49232942	      6.25815103	    -11.45266043	     -9.71322789	     10.23085565	     -2.37152952	     -4.56319876	     -5.04801429	    -10.53114163	    -17.87692696	     21.77034217	     -7.88664969	    -13.06924727	      3.59457873	     -8.95961605
      1.39000000	      7.07085749	     -3.25520070	      4.59794016	      1.15333005	      0.94527452	     -0.08068172	     -7.49883390	      6.25627584	    -11.41735366	     -9.73375757	     10.23138349	     -2.37179899	     -4.56555205	     -5.04745234	    -10.51717629	    -17.90403303	     21.76238139	     -7.89799914	    -13.09529051	      3.59979827	     -8.97531338
      1.40000000	      7.12272044	     -3.24873100	      4.58300880	      1.15300623	      0.94536946	     -0.08043152	     -7.54653748	      6.26807777	    -11.34520576	     -9.70804053	     10.25129539	     -2.38423011	     -4.59072463	     -5.05759246	    -10.52706778	    -17.92440731	     21.73112470	     -7.93778622	    -13.13691045	      3.61285202	     -8.98281412
      1.41000000	      7.15605667	     -3.23915183	      4.57291954	      1.15262597	      0.94543432	     -0.08017893	     -7.54713794	      6.26919223	    -11.31281710	     -9.72975834	     10.24911061	     -2.39040314	     -4.58874460	     -5.06287858	    -10.51962328	    -17.94761436	     21.72577915	     -7.94219370	    -13.16231650	      3.62180292	     -8.99751107
      1.42000000	      7.19218678	     -3.23633085	      4.56368378	      1.15222583	      0.94550290	     -0.07988913	     -7.55561241	      6.28160552	    -11.27225406	     -9.73596982	     10.25486482	     -2.40168139	     -4.58399809	     -5.08122390	    -10.52279816	    -17.98012390	     21.71134542	     -7.94766021	    -13.19212052	      3.63304064	     -9.00977057
      1.43000000	      7.22750949	     -3.23908219	      4.55294488	      1.15180610	      0.94557151	     -0.07957283	     -7.56459011	      6.30204820	    -11.23307365	     -9.73419133	     10.25774059	     -2.41742148	     -4.57710214	     -5.10843300	    -10.53567817	    -18.01160607	     21.69697451	     -7.95028968	    -13.21965320	      3.64890595	     -9.01793547
      1.44000000	      7.24725375	     -3.23217494	      4.53715871	      1.15141489	      0.94562402	     -0.07923722	     -7.55981495	      6.30863970	    -11.23174218	     -9.72980494	     10.25762705	     -2.41898950	     -4.57098344	     -5.11947127	    -10.53372257	    -18.01394721	     21.69530034	     -7.95020596	    -13.21909800	      3.64723950	     -9.02220505
      1.45000000	      7.28660210	     -3.25796970	      4.52475259	      1.15095580	      0.94569450	     -0.07887739	     -7.57950094	      6.35991951	    -11.17150191	     -9.70466993	     10.24222505	     -2.44842754	     -4.55138771	     -5.18103431	    -10.57974137	    -18.07398217	     21.67463821	     -7.94200829	    -13.25045391	      3.68724616	     -9.02372223
      1.46000000	      7.30618942	     -3.25111294	      4.50429294	      1.15053533	      0.94574815	     -0.07851824	     -7.57338458	      6.36695687	    -11.17181857	     -9.70010923	     10.24088855	     -2.44931345	     -4.54476827	     -5.19144529	    -10.57561705	    -18.07554451	     21.67431091	     -7.94088385	    -13.24879650	      3.68335722	     -9.02875106
      1.47000000	      7.32912101	     -3.28079377	      4.48005299	      1.15006915	      0.94579684	     -0.07813081	     -7.58113437	      6.42156976	    -11.11051387	     -9.66240740	     10.19455283	     -2.46904378	     -4.51199720	     -5.25352680	    -10.62023055	    -18.12975498	     21.66912970	     -7.90860158	    -13.25434815	      3.72345566	     -9.02160337
      1.48000000	      7.34736345	     -3.27409130	      4.45400621	      1.14960071	      0.94585026	     -0.07776492	     -7.57419826	      6.42923309	    -11.11424665	     -9.65199992	     10.19350802	     -2.46930367	     -4.50216453	     -5.26180576	    -10.61589398	    -18.13025417	     21.66844179	     -7.90723353	    -13.25395902	      3.72012692	     -9.02490125
      1.49000000	      7.35604867	     -3.30308403	      4.41780547	      1.14910261	      0.94588665	     -0.07736715	     -7.57410327	      6.48216379	    -11.05474782	     -9.59556662	     10.12428196	     -2.47904515	     -4.45456629	     -5.31891437	    -10.66328327	    -18.18322230	     21.64805982	     -7.87777046	    -13.24088470	      3.75723505	     -8.99794532
      1.50000000	      7.36742542	     -3.30260194	      4.38392462	      1.14859091	      0.94593516	     -0.07698602	     -7.57051225	      6.49875127	    -11.05257728	     -9.55706162	     10.10030373	     -2.48284220	     -4.42819172	     -5.33516257	    -10.67258812	    -18.19881134	     21.64020540	     -7.86812531	    -13.23364691	      3.75831288	     -8.96897631
      1.51000000	      7.38536752	     -3.29712632	      4.34827470	      1.14805143	      0.94599672	     -0.07662095	     -7.56147979	      6.50630022	    -11.05850736	     -9.54131960	     10.09699844	     -2.48329729	     -4.41631907	     -5.34103127	    -10.66899638	    -18.19953231	     21.63718493	     -7.86791050	    -13.23487897	      3.75936424	     -8.97221539
      1.52000000	      7.38712094	     -3.32813531	      4.29423748	      1.14748578	      0.94604451	     -0.07619683	     -7.54541661	      6.55758397	    -10.99709619	     -9.49068302	      9.97679124	     -2.50229227	     -4.36374687	     -5.39758832	    -10.73446478	    -18.24637642	     21.57399102	     -7.87819743	    -13.21554805	      3.79674213	     -8.91760920
      1.53000000	      7.39933553	     -3.33556627	      4.25542985	      1.14689779	      0.94610223	     -0.07578498	     -7.52981179	      6.58275469	    -10.98723657	     -9.46354269	      9.94046668	     -2.51139006	     -4.33205498	     -5.42369895	    -10.74476179	    -18.26804148	     21.55467286	     -7.88493618	    -13.21174442	      3.80275402	     -8.87627990
      1.54000000	      7.40938825	     -3.35828403	      4.20626829	      1.14629073	      0.94615916	     -0.07535313	     -7.49666186	      6.62132609	    -10.95460657	     -9.46131101	      9.87523460	     -2.52520441	     -4.29711245	     -5.46779880	    -10.77656201	    -18.29254661	     21.50846153	     -7.90687371	    -13.20266811	      3.83105843	     -8.85512136
      1.55000000	      7.43039364	     -3.35349419	      4.17373576	      1.14569354	      0.94622887	     -0.07492676	     -7.48296825	      6.63461611	    -10.95886765	     -9.44896058	      9.87129342	     -2.52607936	     -4.28538042	     -5.48034613	    -10.77284513	    -18.29157689	     21.50579000	     -7.90863934	    -13.20227485	      3.82164010	     -8.85908417
